<svg fill="none" height="24" viewBox="0 0 24 24" width="24" ><g clip-rule="evenodd" fill="#93a1b0" fill-rule="evenodd"><path d="m9.70711 7.29289c.39049.39053.39049 1.02369 0 1.41422l-3.2929 3.29289 3.2929 3.2929c.39049.3905.39049 1.0237 0 1.4142-.39053.3905-1.02369.3905-1.41422 0l-4-4c-.39052-.3905-.39052-1.0237 0-1.4142l4-4.00001c.39053-.39052 1.02369-.39052 1.41422 0z"/><path d="m14.2929 7.29289c.3905-.39052 1.0237-.39052 1.4142 0l4 4.00001c.3905.3905.3905 1.0237 0 1.4142l-4 4c-.3905.3905-1.0237.3905-1.4142 0s-.3905-1.0237 0-1.4142l3.2929-3.2929-3.2929-3.29289c-.3905-.39053-.3905-1.02369 0-1.41422z"/></g></svg>