<svg fill="none" height="24" viewBox="0 0 24 24" width="24" ><path clip-rule="evenodd" d="m7 7h10.001c.551 0 .999.449.999 1v5.586l-2.293-2.293c-.391-.391-1.023-.391-1.414 0l-1.293 1.293-3.293-3.293c-.391-.391-1.023-.391-1.414 0l-2.293 2.293v-3.586c0-.551.448-1 1-1zm10 10h-10c-.552 0-1-.449-1-1v-1.586l3-3 3.293 3.293c.391.391 1.023.391 1.414 0l1.293-1.293 2.931 2.93c-.142.381-.501.656-.931.656zm-13-1c0 1.654 1.346 3 3 3h10c1.654 0 3-1.346 3-3v-8c0-1.654-1.346-3-2.999-3h-10.001c-1.654 0-3 1.346-3 3z" fill="#93a1b0" fill-rule="evenodd"/></svg>