<svg fill="none" height="24" viewBox="0 0 24 24" width="24" ><path clip-rule="evenodd" d="m10 9h8c.552 0 1-.447 1-1s-.448-1-1-1h-8c-.552 0-1 .447-1 1s.448 1 1 1zm0 4h8c.552 0 1-.447 1-1s-.448-1-1-1h-8c-.552 0-1 .447-1 1s.448 1 1 1zm8 4h-8c-.552 0-1-.447-1-1s.448-1 1-1h8c.552 0 1 .447 1 1s-.448 1-1 1zm-12.71-.29c.19.18.45.29.71.29s.52-.11.71-.29c.18-.19.29-.44.29-.71 0-.26-.11-.521-.29-.71-.37-.37-1.05-.37-1.42 0-.18.189-.29.45-.29.71s.11.52.29.71zm.71-3.71c-.26 0-.52-.11-.71-.29-.18-.19-.29-.45-.29-.71 0-.271.11-.521.29-.71.38-.37 1.04-.37 1.42 0 .18.189.29.439.29.71 0 .26-.11.52-.29.71-.19.18-.45.29-.71.29zm-.71-4.29c.19.18.45.29.71.29s.52-.11.71-.29c.18-.19.29-.44.29-.71 0-.26-.11-.521-.29-.71-.38-.37-1.04-.37-1.42 0-.18.189-.29.439-.29.71 0 .27.11.52.29.71z" fill="#93a1b0" fill-rule="evenodd"/></svg>