<svg fill="none" height="24" viewBox="0 0 24 24" width="24" ><path clip-rule="evenodd" d="m16.8955 12c-.2882-.4853-.1204-1.1102.3678-1.3966.9744-.5709.8325-1.59459.2571-2.56306-.5754-.96745-1.8359-1.29163-2.8092-.71871l-2.6493 1.55465c-.4718.27729-.8072.71973-.9436 1.24682-.1364.528-.0585 1.0765.2195 1.5454.121.2029.2728.3813.4513.5301.4348.3609.4933 1.0032.1292 1.4354-.2031.2416-.4934.366-.7867.366-.2328 0-.4656-.0775-.6574-.2375-.36-.2987-.66364-.6545-.90262-1.0572-.55693-.9379-.71386-2.0358-.44001-3.09094.27283-1.05411.94363-1.94 1.88723-2.49356l2.6493-1.55465c1.9477-1.14381 4.4687-.49953 5.6195 1.43742 1.1498 1.93694.9666 4.21243-.9812 5.35633-.4902.2854-1.1227.1243-1.4109-.3599zm-9.29924 1.5867-.00962.0125s-.33948.3959-.44027.8158c-.10079.4198-.05923 1.0746.22241 1.5436.58406.9686 1.85924 1.2908 2.84762.7198l2.6844-1.5548c.9862-.572 1.3157-1.8241.7327-2.7927-.1216-.2029-.2754-.3803-.4563-.5281-.4406-.3609-.4999-1.0043-.133-1.4366.3679-.43128 1.0237-.49042 1.4643-.1305.3638.2977.6714.6535.9146 1.0583 1.166 1.9362.5082 4.4423-1.4654 5.5863l-2.6854 1.5549c-.661.3823-1.3885.5648-2.1056.5648-1.42379 0-2.81225-.7157-3.58754-2.0035-.56432-.938-.72332-2.0361-.44584-3.0903.27748-1.0563.72492-1.5753 1.39639-2.0637.45177-.3287 1.09985-.3726 1.47029.1575.31004.6618.00482 1.0573-.40374 1.5867z" fill="#93a1b0" fill-rule="evenodd"/></svg>